<svg width="32" height="32" viewBox="0 0 32 32" fill="none" xmlns="http://www.w3.org/2000/svg">
  <rect width="32" height="32" rx="8" fill="#10B981"/>
  <path d="M16 6C16.5523 6 17 6.44772 17 7V9H19C19.5523 9 20 9.44772 20 10C20 10.5523 19.5523 11 19 11H17V13C17 13.5523 16.5523 14 16 14C15.4477 14 15 13.5523 15 13V11H13C12.4477 11 12 10.5523 12 10C12 9.44772 12.4477 9 13 9H15V7C15 6.44772 15.4477 6 16 6Z" fill="white"/>
  <path d="M8 18C8 16.8954 8.89543 16 10 16H22C23.1046 16 24 16.8954 24 18V24C24 25.1046 23.1046 26 22 26H10C8.89543 26 8 25.1046 8 24V18Z" fill="white"/>
  <circle cx="12" cy="20" r="1" fill="#10B981"/>
  <circle cx="16" cy="20" r="1" fill="#10B981"/>
  <circle cx="20" cy="20" r="1" fill="#10B981"/>
  <path d="M10 22H22" stroke="#10B981" stroke-width="1.5" stroke-linecap="round"/>
</svg>
